<?xml version="1.0" standalone="no"?>
<!DOCTYPE svg PUBLIC "-//W3C//DTD SVG 20010904//EN"
 "http://www.w3.org/TR/2001/REC-SVG-20010904/DTD/svg10.dtd">
<svg version="1.0" xmlns="http://www.w3.org/2000/svg"
 width="2560.000000pt" height="2560.000000pt" viewBox="0 0 2560.000000 2560.000000"
 preserveAspectRatio="xMidYMid meet">

<g transform="translate(0.000000,2560.000000) scale(0.100000,-0.100000)"
fill="#000000" stroke="none">
<path d="M12385 25244 c-338 -18 -610 -36 -660 -44 -33 -5 -112 -14 -175 -20
-63 -5 -131 -14 -150 -20 -19 -6 -84 -15 -143 -20 -60 -6 -117 -15 -127 -20
-9 -5 -55 -12 -101 -16 -46 -3 -104 -12 -129 -19 -25 -8 -83 -19 -130 -24 -47
-6 -114 -17 -150 -26 -36 -8 -79 -15 -96 -15 -17 0 -49 -6 -70 -14 -22 -7 -66
-16 -99 -20 -33 -4 -78 -13 -100 -20 -22 -8 -65 -19 -95 -25 -30 -7 -93 -20
-140 -30 -47 -9 -95 -23 -107 -29 -12 -7 -34 -12 -50 -12 -15 0 -48 -7 -73
-15 -44 -15 -112 -33 -220 -60 -30 -8 -73 -21 -95 -29 -22 -8 -50 -15 -62 -16
-12 0 -24 -4 -28 -9 -3 -5 -20 -12 -38 -16 -40 -8 -193 -53 -227 -67 -14 -5
-72 -25 -130 -43 -58 -18 -121 -39 -140 -46 -19 -7 -60 -21 -90 -32 -30 -11
-71 -25 -90 -32 -92 -33 -158 -58 -190 -72 -19 -8 -55 -21 -80 -28 -25 -7 -70
-23 -100 -35 -30 -12 -77 -30 -105 -39 -27 -10 -70 -28 -95 -39 -119 -53 -163
-72 -173 -72 -5 0 -33 -11 -61 -24 -90 -42 -124 -56 -134 -56 -5 0 -15 -6 -21
-14 -7 -8 -24 -17 -39 -21 -24 -6 -102 -41 -142 -64 -8 -5 -40 -21 -70 -36
-30 -15 -66 -33 -80 -40 -14 -7 -50 -25 -80 -40 -30 -14 -62 -30 -70 -36 -8
-5 -26 -14 -40 -19 -14 -6 -43 -21 -65 -35 -22 -13 -51 -29 -65 -34 -14 -6
-32 -15 -40 -19 -8 -5 -51 -28 -95 -52 -44 -23 -105 -57 -135 -75 -30 -18 -84
-49 -120 -69 -36 -20 -78 -43 -95 -52 -34 -19 -145 -90 -224 -143 -29 -20 -60
-40 -69 -46 -64 -40 -464 -311 -560 -379 -24 -17 -51 -35 -61 -41 -30 -18
-398 -309 -411 -325 -3 -3 -34 -28 -70 -55 -36 -26 -69 -53 -75 -59 -5 -7 -37
-33 -70 -60 -62 -50 -164 -138 -197 -168 -10 -10 -21 -18 -26 -18 -4 0 -15 -8
-24 -17 -9 -10 -24 -24 -33 -31 -9 -8 -43 -36 -76 -64 -33 -27 -63 -47 -66
-44 -8 8 48 65 65 66 6 0 12 6 12 13 0 7 18 27 41 44 22 17 78 67 123 110 45
43 106 99 136 124 105 89 183 154 269 224 101 83 124 102 158 133 14 12 37 30
51 40 15 9 68 48 118 87 81 62 212 158 314 229 59 42 447 299 497 330 27 16
78 49 115 73 37 24 78 48 90 53 13 6 40 20 60 33 110 65 201 117 208 117 4 0
19 9 33 20 29 23 82 52 334 181 100 52 180 95 178 97 -5 5 -498 -237 -675
-333 -1928 -1035 -3577 -2586 -4717 -4435 -1036 -1681 -1646 -3531 -1807
-5480 -53 -639 -53 -1366 -1 -2005 154 -1867 725 -3662 1675 -5260 773 -1301
1779 -2458 2945 -3386 237 -188 526 -404 512 -383 -3 6 2 19 13 29 11 10 17
22 14 26 -3 5 2 9 10 9 8 0 18 -5 21 -10 5 -8 11 -8 19 -1 18 15 28 1 14 -18
-7 -9 -1 -6 13 7 19 16 26 19 26 8 0 -8 -4 -13 -9 -10 -4 3 -8 -2 -8 -12 0
-13 3 -14 14 -5 21 18 6 69 -16 55 -7 -4 -8 -2 -4 5 4 6 11 9 16 6 4 -3 7 3 5
12 -2 10 -4 20 -4 22 -1 3 -13 -6 -28 -20 l-28 -24 28 32 c16 17 36 30 45 28
10 -1 24 4 34 12 11 10 18 11 23 3 3 -5 11 -7 17 -4 6 4 8 2 4 -4 -3 -6 -2
-13 4 -17 5 -3 10 1 10 10 0 17 46 39 67 31 18 -7 28 21 14 38 -9 11 -9 14 1
12 7 -1 18 -5 25 -9 6 -4 14 -3 18 2 4 7 15 7 31 1 38 -15 64 -12 71 7 11 32
35 54 48 43 8 -7 12 -5 12 4 0 8 -8 13 -19 11 -10 -2 -19 2 -19 11 -1 8 -3 19
-4 24 -1 6 -3 14 -4 19 0 5 -13 14 -28 20 -16 6 -36 16 -45 23 -14 10 -20 9
-36 -5 -10 -9 -22 -14 -26 -10 -4 4 -9 -3 -13 -15 -5 -21 -28 -30 -36 -14 -2
4 2 18 9 32 8 14 14 21 14 16 0 -5 8 -2 18 7 10 10 23 14 28 10 5 -5 1 1 -8
13 -10 11 -19 31 -21 45 -3 16 -11 25 -28 27 -13 2 -39 18 -57 35 -18 18 -36
30 -40 27 -4 -3 -13 8 -21 24 -7 16 -26 33 -42 39 -15 6 -30 20 -33 31 -3 12
-24 31 -46 44 -22 12 -40 27 -40 31 0 5 -16 19 -36 30 -20 12 -38 30 -41 41
-3 11 -11 20 -17 20 -7 0 -25 14 -42 31 -16 17 -39 35 -52 40 -22 9 -47 53
-37 69 3 4 30 -16 60 -46 31 -30 59 -54 63 -54 10 0 47 -42 55 -62 3 -10 13
-18 22 -18 8 0 15 -7 15 -15 0 -8 6 -15 13 -15 8 0 24 -11 37 -25 13 -14 32
-25 42 -25 10 0 18 -6 18 -13 0 -7 14 -23 31 -37 18 -14 39 -33 48 -42 8 -10
21 -18 28 -18 7 0 13 -7 13 -15 0 -8 6 -15 13 -15 7 0 26 -14 42 -30 16 -17
33 -30 37 -30 10 0 31 -16 56 -42 9 -10 22 -18 29 -18 7 0 17 -9 23 -19 5 -11
19 -23 31 -26 11 -4 35 -20 52 -36 49 -45 134 -109 144 -109 6 0 18 -9 28 -20
10 -11 24 -20 32 -20 7 0 13 -4 13 -8 0 -8 85 -72 95 -72 3 0 13 -7 23 -16 26
-24 116 -91 127 -95 26 -11 85 -52 85 -59 0 -4 14 -13 30 -19 17 -5 30 -14 30
-19 0 -5 14 -15 30 -22 17 -7 30 -16 30 -21 0 -5 6 -9 13 -9 8 0 22 -9 32 -20
10 -11 23 -20 30 -20 7 0 20 -9 30 -20 10 -11 23 -20 30 -20 7 0 22 -9 35 -20
13 -11 27 -20 31 -20 4 0 14 -6 21 -12 14 -14 55 -38 98 -60 14 -7 27 -16 30
-19 3 -4 21 -14 40 -23 19 -9 49 -25 65 -36 17 -11 44 -27 60 -35 17 -8 48
-26 70 -40 22 -13 54 -31 70 -40 17 -8 62 -33 100 -55 39 -22 81 -45 95 -51
14 -6 32 -15 40 -20 8 -5 47 -25 85 -45 39 -19 81 -42 95 -50 14 -7 45 -23 70
-34 25 -11 52 -25 60 -30 23 -14 268 -130 275 -130 3 0 32 -12 63 -26 62 -29
136 -61 167 -74 11 -5 40 -17 65 -28 25 -11 74 -32 110 -47 83 -34 148 -63
182 -81 14 -8 35 -14 45 -14 10 0 36 -9 58 -20 22 -11 48 -20 58 -20 10 0 31
-7 46 -15 16 -8 46 -19 67 -24 22 -5 107 -32 189 -60 148 -50 206 -68 355
-111 41 -12 93 -28 115 -35 94 -32 420 -117 595 -156 52 -11 122 -27 155 -35
121 -27 221 -46 515 -93 122 -20 155 -25 385 -57 163 -22 354 -43 495 -54 69
-6 209 -17 312 -26 218 -17 1006 -20 1238 -4 304 20 558 40 630 49 41 6 116
13 165 16 50 4 113 11 140 16 28 6 97 16 155 24 157 20 305 43 395 60 44 8
132 24 195 36 328 58 620 128 1005 239 310 89 907 296 1070 370 11 5 49 21 85
36 81 32 101 41 220 97 52 24 129 59 170 78 81 36 436 215 535 269 33 18 87
47 120 65 83 44 226 128 310 180 39 24 84 52 100 61 44 25 232 141 295 183 30
20 60 38 65 41 21 10 335 225 530 363 44 31 104 73 134 94 30 21 64 47 77 58
13 11 36 30 51 41 192 147 268 208 398 323 17 14 57 48 90 75 33 27 67 57 76
65 9 9 42 39 75 66 231 198 428 390 821 801 181 190 179 188 288 309 39 44 77
86 85 95 8 8 40 44 70 80 30 35 62 71 70 80 8 10 29 32 46 51 16 19 61 72 99
119 37 47 71 87 74 90 4 3 14 16 24 30 9 14 42 59 72 100 30 41 71 99 91 128
20 28 39 52 43 52 4 0 13 11 19 25 12 26 22 40 55 76 9 10 17 22 17 25 0 6 49
74 64 89 6 6 16 18 21 27 44 70 89 128 98 125 18 -6 15 -75 -4 -80 -9 -2 -18
-13 -21 -24 -4 -16 0 -19 26 -18 45 0 61 12 44 33 -11 13 -11 15 2 7 12 -6 13
-5 3 6 -17 18 -16 54 2 69 12 10 16 8 24 -11 5 -14 5 -34 -1 -49 -5 -14 -9
-26 -9 -27 5 -16 -1 -33 -9 -28 -5 3 -10 0 -11 -7 0 -7 -2 -24 -5 -37 -8 -46
37 -62 68 -23 11 13 11 14 -2 7 -12 -6 -13 -5 -2 6 6 7 12 27 12 45 0 17 7 37
15 44 14 11 19 7 16 -12 0 -5 3 -7 8 -5 5 1 10 -2 12 -8 2 -5 11 -19 21 -29 9
-10 14 -24 10 -30 -16 -26 -8 -32 39 -31 39 1 46 -1 38 -12 -7 -7 -8 -13 -4
-13 4 0 2 -6 -4 -13 -6 -8 -8 -17 -5 -20 4 -4 -3 -5 -14 -2 -13 2 -21 -1 -19
-8 1 -7 -3 -11 -9 -10 -9 2 -9 -4 -1 -22 7 -13 16 -21 22 -17 5 3 4 -2 -4 -12
-12 -15 -12 -17 0 -14 8 2 13 -2 12 -9 -3 -12 14 -12 34 0 6 4 14 3 18 -3 4
-6 12 -7 18 -3 7 4 6 -1 -2 -11 -12 -14 -12 -17 -1 -14 7 2 19 -7 25 -19 7
-13 14 -21 17 -18 2 3 5 -2 5 -10 0 -8 -5 -11 -11 -8 -6 4 -4 -2 4 -12 9 -11
10 -16 3 -11 -8 4 -13 1 -13 -9 0 -10 5 -13 12 -9 7 4 8 3 4 -5 -6 -9 -11 -9
-22 0 -11 9 -14 8 -14 -3 0 -17 43 -19 48 -3 2 6 9 16 15 24 7 9 8 12 1 8 -6
-3 -11 0 -11 6 0 9 15 13 46 11 25 0 49 4 53 10 8 13 60 -32 52 -46 -3 -5 0
-7 8 -6 7 2 12 -2 11 -8 -4 -19 36 -23 54 -6 29 29 45 24 38 -11 -6 -28 -5
-30 8 -17 29 29 251 346 383 545 769 1167 1354 2531 1679 3914 157 668 252
1308 307 2076 17 243 17 1226 0 1475 -63 905 -189 1667 -408 2478 -781 2892
-2607 5420 -5125 7099 -953 635 -1970 1130 -3069 1493 -1020 337 -2113 547
-3205 616 -224 14 -1044 26 -1200 18z m175 -2023 l45 -7 -55 -7 c-30 -3 -107
-9 -170 -12 -63 -3 -178 -12 -255 -20 -77 -8 -196 -19 -265 -25 -215 -19 -387
-38 -407 -44 -10 -3 -63 -12 -118 -21 -234 -34 -613 -106 -825 -155 -47 -11
-112 -26 -145 -34 -120 -28 -257 -64 -365 -96 -36 -10 -105 -31 -155 -45 -49
-15 -109 -33 -133 -41 -23 -8 -48 -14 -55 -14 -7 0 -24 -6 -39 -14 -15 -8 -42
-17 -60 -21 -18 -4 -46 -13 -63 -20 -72 -29 -143 -54 -175 -61 -19 -3 -44 -13
-55 -20 -11 -8 -26 -14 -35 -14 -9 0 -54 -16 -100 -36 -47 -20 -100 -40 -119
-44 -18 -5 -38 -13 -44 -19 -6 -6 -18 -11 -27 -11 -8 0 -32 -9 -53 -20 -20
-11 -42 -20 -48 -20 -5 0 -54 -21 -107 -46 -53 -26 -106 -50 -117 -54 -18 -7
-58 -25 -175 -78 -129 -58 -508 -250 -530 -267 -8 -7 -26 -16 -38 -20 -13 -4
-60 -28 -105 -54 -45 -25 -93 -52 -107 -59 -31 -15 -85 -48 -141 -86 -68 -46
-141 -92 -169 -106 -14 -7 -27 -16 -30 -19 -5 -7 -74 -52 -170 -111 -30 -19
-57 -37 -60 -40 -12 -14 -210 -140 -220 -140 -5 0 -10 -5 -10 -10 0 -6 -8 -14
-17 -18 -17 -7 -162 -103 -213 -141 -14 -11 -70 -52 -125 -92 -55 -40 -123
-91 -151 -113 -28 -23 -61 -48 -74 -56 -12 -8 -32 -23 -44 -33 -11 -9 -48 -38
-81 -63 -33 -25 -68 -54 -78 -65 -10 -10 -43 -38 -74 -61 -32 -24 -64 -50 -73
-58 -20 -19 -124 -108 -158 -135 -13 -11 -46 -40 -73 -63 -26 -24 -53 -42 -58
-40 -12 4 125 145 284 293 65 61 137 127 159 148 23 21 62 55 88 75 25 20 80
64 122 97 90 72 193 149 341 255 61 43 138 100 172 125 71 53 177 124 213 142
14 7 52 31 85 52 33 22 85 55 115 72 30 18 56 36 58 41 2 4 75 49 163 99 87
50 159 96 159 100 0 5 5 9 12 9 6 0 73 35 147 78 213 123 914 462 954 462 4 0
27 8 50 19 23 10 63 28 89 40 26 11 50 21 53 21 3 0 25 8 48 18 40 17 68 29
177 72 117 46 156 60 169 60 7 0 27 6 44 14 53 22 389 129 617 195 36 11 89
27 118 36 29 9 72 20 95 24 23 5 94 22 157 39 320 82 501 116 940 177 102 14
212 29 245 35 33 5 96 12 140 15 44 3 145 13 225 21 80 8 172 16 205 17 127 7
432 5 475 -2z m-7955 -1162 c-4 -5 -13 -9 -22 -9 -13 0 -13 3 -3 15 13 15 35
11 25 -6z m-37 -31 c-6 -18 -28 -21 -28 -4 0 9 7 16 16 16 9 0 14 -5 12 -12z
m-48 -38 c0 -5 -4 -10 -10 -10 -5 0 -10 5 -10 10 0 6 5 10 10 10 6 0 10 -4 10
-10z m-40 -40 c0 -5 -5 -10 -11 -10 -5 0 -7 5 -4 10 3 6 8 10 11 10 2 0 4 -4
4 -10z m8619 -240 c156 -11 310 -24 344 -29 34 -5 98 -13 142 -16 97 -8 416
-52 465 -64 19 -5 58 -12 85 -15 110 -14 661 -142 755 -176 14 -4 66 -21 115
-35 289 -87 640 -216 862 -316 24 -10 45 -19 48 -19 14 0 437 -207 630 -309
212 -112 325 -185 325 -210 0 -10 -27 -39 -60 -65 -33 -26 -60 -54 -60 -61 0
-17 -41 -29 -73 -22 -58 15 -145 52 -263 113 -71 37 -176 91 -234 121 -58 30
-136 68 -175 84 -38 16 -78 34 -88 40 -18 10 -145 63 -237 99 -113 44 -267
102 -285 107 -11 3 -63 20 -115 38 -52 18 -135 45 -185 60 -49 15 -108 33
-130 40 -22 8 -76 24 -120 36 -44 11 -107 29 -140 39 -81 24 -305 78 -435 105
-560 117 -1389 182 -1965 156 -137 -7 -288 -16 -335 -21 -47 -5 -152 -16 -235
-25 -82 -8 -156 -18 -162 -20 -7 -2 -68 -11 -135 -20 -67 -9 -125 -18 -130
-21 -4 -3 -47 -11 -95 -19 -234 -39 -619 -132 -953 -231 -131 -39 -178 -53
-205 -63 -16 -6 -66 -22 -110 -37 -90 -29 -259 -90 -290 -104 -11 -5 -59 -25
-107 -45 -177 -71 -257 -104 -275 -114 -10 -6 -47 -23 -83 -39 -275 -124 -508
-239 -541 -268 -8 -8 -19 -14 -23 -14 -21 0 -582 -338 -736 -444 -252 -172
-548 -394 -616 -461 -11 -11 -45 -40 -74 -65 -29 -25 -72 -61 -94 -81 -81 -70
-168 -129 -192 -129 -13 0 -33 11 -46 23 -13 13 -38 34 -55 46 -64 44 -38 112
86 228 36 34 69 63 73 63 4 0 45 33 90 73 185 163 362 307 553 449 71 53 150
112 175 130 25 19 70 49 100 67 30 18 98 59 150 91 103 63 527 310 534 310 2
0 46 24 97 53 88 49 410 203 544 260 203 85 264 111 390 160 238 94 703 245
960 312 304 80 395 101 595 136 325 57 583 93 795 110 77 6 178 14 225 18 174
16 628 12 919 -9z m-287 -907 c22 -20 24 -66 2 -87 -18 -19 -77 -21 -92 -3
-22 27 -22 54 -1 80 24 31 63 35 91 10z m-5126 -40 c-10 -10 -19 5 -10 18 6
11 8 11 12 0 2 -7 1 -15 -2 -18z m3769 -218 c30 -29 31 -45 4 -79 -17 -22 -29
-26 -69 -26 -53 0 -72 15 -72 57 0 35 43 73 83 73 18 0 39 -9 54 -25z m6773
-14 c28 -27 31 -33 21 -55 -13 -27 -54 -40 -81 -25 -25 13 -25 84 0 98 24 14
24 14 60 -18z m-12638 -215 c0 -3 -4 -8 -10 -11 -5 -3 -10 -1 -10 4 0 6 5 11
10 11 6 0 10 -2 10 -4z m-48 -48 c-7 -7 -12 -8 -12 -2 0 14 12 26 19 19 2 -3
-1 -11 -7 -17z m12093 -305 c14 -56 38 -80 118 -115 37 -17 67 -34 67 -39 0
-4 -10 -11 -22 -15 -13 -3 -30 -12 -38 -19 -8 -7 -32 -18 -52 -24 -35 -11
-118 -91 -118 -112 0 -25 -23 -3 -46 44 -28 57 -51 80 -101 102 -18 8 -33 18
-33 23 0 5 21 24 48 43 60 43 78 64 102 117 16 35 24 43 42 40 17 -2 25 -13
33 -45z m-3355 -213 c168 -10 366 -32 500 -55 47 -8 108 -17 135 -20 28 -3 79
-12 115 -20 36 -7 110 -23 165 -35 578 -120 1231 -335 1690 -554 227 -109 360
-179 414 -218 13 -10 31 -18 40 -18 9 0 24 -9 34 -20 9 -11 23 -20 31 -20 8 0
18 -4 21 -10 4 -6 -7 -10 -24 -10 -21 0 -31 5 -31 15 0 9 -9 15 -21 15 -12 0
-40 9 -63 19 -84 40 -535 215 -651 253 -318 103 -627 165 -1020 205 -232 23
-763 23 -995 0 -315 -32 -648 -88 -930 -157 -151 -36 -392 -100 -401 -106 -4
-2 -47 -16 -96 -29 -138 -40 -500 -172 -563 -206 -8 -4 -64 -29 -123 -54 -241
-102 -601 -289 -800 -414 -70 -43 -246 -156 -267 -170 -53 -37 -91 -61 -95
-61 -5 0 -63 -39 -112 -76 -21 -16 -47 -35 -58 -42 -28 -17 -58 -38 -154 -107
-46 -33 -102 -73 -126 -90 -23 -16 -48 -36 -56 -42 -35 -31 -77 -63 -83 -63
-4 0 -23 -15 -42 -32 -20 -18 -43 -37 -52 -42 -10 -5 -21 -15 -25 -23 -4 -7
-13 -13 -20 -13 -7 0 -18 -9 -25 -20 -7 -11 -19 -20 -27 -20 -8 0 -15 -7 -15
-15 0 -8 -9 -15 -20 -15 -11 0 -20 -4 -20 -10 0 -11 -71 -78 -85 -80 -5 -1
-16 -7 -24 -13 -11 -9 -13 -7 -10 8 2 11 15 25 28 31 13 7 28 22 35 35 6 12
20 23 31 25 11 2 21 8 23 14 2 5 7 8 11 6 4 -3 8 1 8 9 0 8 -3 12 -7 10 -3 -2
-18 7 -32 20 -14 13 -29 21 -33 17 -4 -4 -6 -2 -5 3 9 45 -17 55 -51 19 -15
-16 -17 -24 -8 -29 8 -6 10 -4 4 6 -8 12 -6 12 8 0 9 -7 17 -20 17 -29 0 -8
-3 -12 -7 -9 -3 4 -13 1 -22 -6 -14 -10 -14 -10 -4 4 7 9 10 18 7 22 -9 9 -58
-3 -75 -19 -11 -10 -19 -11 -23 -5 -4 5 -16 8 -27 6 -16 -3 -18 -1 -10 9 9 10
3 13 -30 11 -22 -1 -46 3 -52 10 -7 6 -24 10 -39 10 -16 -1 -28 3 -28 10 0 8
-12 12 -30 10 -19 -2 -30 2 -30 11 0 14 -27 12 -59 -5 -15 -8 -23 -7 -35 4
-21 22 -21 22 -39 7 -10 -9 -17 -10 -22 -2 -3 6 -10 8 -15 5 -4 -3 -7 3 -5 12
2 10 4 18 5 18 1 0 3 8 5 17 2 12 -3 15 -16 13 -12 -3 -19 2 -19 12 0 15 -2
14 -18 0 -15 -14 -19 -15 -19 -2 0 8 4 12 9 9 4 -3 8 2 8 12 0 13 -3 14 -14 5
-14 -12 -16 -28 -4 -46 4 -7 -7 -11 -28 -11 -22 0 -30 4 -24 10 6 6 10 16 10
24 0 11 -3 12 -14 3 -12 -10 -14 -9 -10 7 5 16 -1 18 -56 17 -34 -1 -72 4 -85
11 -13 7 -26 10 -28 8 -2 -3 -4 5 -3 18 1 17 -4 23 -19 22 -11 0 -19 -5 -18
-11 1 -6 -4 -17 -13 -24 -12 -10 -15 -10 -12 2 2 10 -6 14 -29 13 -26 0 -30 2
-22 12 8 10 6 12 -11 9 -18 -3 -20 -2 -10 10 15 18 -11 15 -35 -5 -14 -11 -16
-11 -13 0 2 8 -5 14 -17 15 -32 1 -48 14 -35 30 19 23 -39 43 -67 23 -6 -5
-14 -5 -18 2 -3 6 -10 8 -14 6 -4 -3 -8 1 -8 9 0 8 3 12 7 10 4 -2 7 2 7 9 0
14 -34 15 -57 1 -24 -15 -38 -14 -52 3 -7 10 -8 14 -4 10 5 -4 16 -2 24 4 16
14 44 20 37 8 -6 -10 21 -7 32 4 4 4 1 6 -7 4 -9 -2 -14 3 -12 11 2 11 0 12
-11 3 -19 -16 -30 -3 -14 17 11 14 10 15 -7 1 -25 -19 -51 -23 -36 -5 9 10 7
13 -7 10 -10 -1 -23 2 -30 7 -7 5 -14 5 -18 -2 -3 -6 -12 -7 -18 -3 -7 4 -7 0
1 -10 12 -14 11 -16 -7 -12 -11 2 -23 -1 -26 -6 -4 -5 -11 -7 -16 -3 -6 4 -6
10 1 18 8 10 -2 12 -49 9 l-59 -4 5 39 c3 22 0 43 -5 46 -5 3 -31 -17 -58 -44
-27 -28 -53 -50 -58 -50 -10 0 -119 -94 -206 -177 -52 -51 -80 -65 -80 -42 0
6 9 13 20 16 11 3 20 10 20 16 0 15 61 67 71 61 5 -3 9 4 9 15 0 13 7 21 16
21 9 0 18 9 21 20 3 11 12 20 19 20 8 0 14 5 14 11 0 14 55 69 69 69 6 0 11 7
11 15 0 8 4 15 9 15 5 0 29 19 54 43 24 23 84 76 132 117 49 41 97 83 107 93
10 9 22 17 28 17 5 0 13 6 17 13 4 7 18 19 29 27 12 8 73 54 135 101 98 74
272 193 304 209 6 3 69 44 140 91 72 47 144 94 160 103 17 9 44 25 60 35 33
20 79 46 170 98 58 32 86 47 312 154 124 60 448 193 583 240 30 10 87 30 125
44 111 41 158 55 465 138 525 142 798 190 1370 243 246 23 945 25 1300 4z
m5001 -757 c23 -21 96 -96 162 -168 66 -71 152 -164 191 -205 65 -69 101 -109
255 -282 55 -62 349 -455 396 -528 16 -25 61 -94 101 -155 39 -60 93 -148 120
-193 27 -46 59 -100 71 -120 12 -21 29 -50 37 -67 9 -16 20 -37 25 -45 47 -72
136 -244 220 -422 23 -49 58 -125 80 -170 39 -84 116 -260 153 -353 11 -27 29
-68 39 -91 11 -23 19 -48 19 -56 0 -8 4 -18 9 -23 8 -9 42 -91 74 -180 8 -22
31 -85 52 -140 20 -55 43 -120 50 -145 7 -25 18 -58 24 -75 28 -80 91 -321
125 -480 7 -33 18 -76 24 -95 6 -19 19 -69 27 -110 25 -124 43 -203 54 -245
25 -93 51 -226 51 -258 0 -18 7 -56 15 -83 8 -27 19 -101 25 -164 6 -63 15
-131 20 -150 4 -19 11 -93 15 -165 4 -71 9 -139 11 -150 25 -123 28 -205 27
-725 -1 -356 -5 -564 -11 -580 -9 -20 -11 -6 -12 70 -2 101 -6 204 -14 390 -3
63 -5 127 -6 141 0 36 -27 33 -37 -5 -4 -17 -7 -62 -7 -100 -1 -58 -4 -70 -18
-72 -29 -4 -43 29 -24 55 9 12 8 13 -4 6 -12 -7 -13 -6 -2 6 7 8 18 14 24 14
18 0 17 52 -1 67 -36 30 -59 10 -58 -50 0 -27 -4 -55 -9 -63 -11 -17 -12 -31
-4 -44 5 -8 6 -40 1 -61 0 -3 -7 -2 -13 3 -7 4 -16 8 -20 8 -5 0 -8 3 -8 8 0
4 0 14 0 23 0 9 5 12 13 8 9 -6 9 -4 -1 8 -8 11 -9 18 -3 22 7 5 7 15 1 32 -8
19 -7 23 3 18 7 -5 6 0 -3 10 -9 11 -15 43 -17 80 -12 384 -25 636 -34 661 -5
17 -14 89 -20 160 -5 72 -14 144 -19 160 -5 17 -11 55 -14 85 -3 30 -8 82 -12
115 -3 33 -9 64 -14 70 -5 6 -12 46 -16 90 -3 44 -13 98 -20 120 -7 22 -16 65
-20 95 -4 30 -11 64 -17 75 -6 11 -16 49 -23 85 -11 61 -31 137 -75 290 -10
36 -25 92 -34 125 -9 33 -22 72 -30 87 -8 14 -15 33 -15 42 0 9 -8 42 -19 73
-10 32 -28 90 -39 128 -30 99 -67 208 -96 290 -15 39 -40 111 -57 160 -18 50
-35 95 -39 100 -4 6 -11 21 -15 35 -4 14 -13 39 -20 55 -7 17 -26 59 -41 95
-15 36 -35 83 -45 106 -11 22 -19 44 -19 48 0 19 -310 625 -384 752 -84 142
-230 379 -275 445 -118 171 -162 233 -243 339 -228 299 -380 478 -625 737
-201 213 -217 236 -194 295 11 29 96 149 115 160 29 19 76 8 117 -29z m-12156
-513 l40 0 -25 -20 c-14 -12 -38 -27 -55 -35 -16 -8 -39 -20 -50 -27 -71 -44
-101 -64 -105 -69 -3 -3 -14 -11 -25 -17 -36 -19 -280 -203 -288 -218 -4 -8
-15 -14 -22 -14 -8 0 -15 -4 -15 -10 0 -5 -11 -20 -24 -33 -18 -18 -27 -21
-45 -13 -17 7 -31 4 -61 -13 -22 -12 -40 -19 -40 -16 0 3 -6 3 -12 -2 -7 -4
-20 -7 -29 -8 -32 0 -159 -126 -254 -250 -11 -15 -25 -32 -30 -38 -10 -11 -37
-55 -101 -166 -44 -75 -185 -346 -198 -381 -3 -8 -10 -22 -16 -30 -5 -8 -14
-26 -20 -40 -5 -14 -14 -32 -19 -40 -5 -8 -18 -35 -29 -60 -10 -25 -33 -76
-50 -115 -17 -38 -38 -97 -47 -130 -9 -33 -23 -73 -32 -88 -17 -31 -39 -110
-55 -197 -20 -111 -19 -108 -28 -84 -5 12 -14 25 -20 29 -7 4 -9 19 -5 36 6
26 4 29 -19 29 -13 0 -28 5 -31 10 -4 6 -11 8 -16 5 -5 -4 -9 1 -9 10 0 9 -4
14 -9 11 -10 -6 -9 54 1 70 4 6 -3 10 -17 10 -13 0 -22 -3 -19 -7 2 -4 0 -10
-6 -14 -6 -4 -8 -10 -5 -15 3 -4 -3 -7 -12 -5 -10 1 -28 -7 -40 -18 -13 -11
-23 -17 -23 -13 0 5 -6 3 -14 -3 -14 -12 -30 0 -31 24 -2 15 16 36 25 30 4 -3
14 3 21 12 10 12 10 14 2 9 -12 -6 -18 10 -14 36 0 3 -7 5 -17 4 -13 -2 -16
-11 -14 -35 1 -17 -1 -30 -5 -30 -5 1 -10 0 -13 -1 -19 -7 -70 -7 -70 1 0 6
-5 7 -10 4 -6 -4 -10 -3 -9 2 5 26 -2 63 -11 58 -5 -3 -10 -2 -10 4 0 6 -7 8
-16 4 -11 -4 -15 -17 -13 -44 2 -28 -3 -44 -18 -61 -12 -13 -23 -39 -26 -58
-3 -31 -4 -30 -5 11 -1 25 2 49 6 55 5 5 15 36 22 69 7 33 16 65 20 70 10 15
20 127 14 152 -3 12 -18 26 -33 31 -43 15 -163 97 -206 141 -21 23 -44 41 -51
41 -15 0 -113 -105 -187 -202 -72 -93 -217 -306 -217 -318 0 -5 -11 -21 -25
-36 -14 -15 -25 -35 -25 -45 0 -10 -4 -21 -10 -24 -16 -10 -12 49 5 71 8 10
15 27 15 37 0 47 100 239 200 387 265 393 524 657 965 984 219 163 260 190
411 275 259 145 590 269 815 305 141 23 156 24 259 20 52 -2 113 -4 135 -4z
m1762 -570 c4 -25 -14 -35 -33 -19 -13 10 -12 14 2 30 19 21 26 18 31 -11z
m9468 -15 c31 -30 33 -77 5 -105 -25 -25 -43 -25 -98 1 -48 24 -67 56 -52 93
11 29 22 34 78 35 33 1 49 -5 67 -24z m-9863 -237 c-7 -7 -12 -8 -12 -2 0 14
12 26 19 19 2 -3 -1 -11 -7 -17z m-22 -27 c0 -12 -20 -25 -27 -18 -7 7 6 27
18 27 5 0 9 -4 9 -9z m1324 -9 c3 -5 -1 -9 -9 -9 -8 0 -12 4 -9 9 3 4 7 8 9 8
2 0 6 -4 9 -8z m572 -167 l-11 -25 -6 28 c-7 34 -1 46 16 32 10 -8 10 -16 1
-35z m4340 -392 c37 -81 83 -206 104 -282 16 -56 16 -67 4 -97 -8 -18 -14 -52
-14 -74 l0 -41 43 5 c158 19 321 22 362 6 28 -11 28 -13 10 -20 -11 -5 -38 -9
-61 -9 -23 -1 -83 -10 -135 -21 -52 -11 -115 -20 -141 -20 -55 0 -114 -27
-122 -55 -6 -19 -7 -19 -20 -2 -8 10 -40 27 -72 36 -69 22 -124 12 -155 -27
-19 -25 -21 -25 -47 -10 -15 9 -54 25 -86 37 -33 11 -76 32 -96 46 -20 14 -42
25 -50 25 -10 0 -11 3 -3 11 10 10 138 2 317 -21 41 -5 78 -5 93 1 l24 9 -25
42 c-30 50 -63 61 -163 52 -70 -7 -82 6 -41 42 41 37 106 150 153 269 45 115
68 155 87 155 4 0 20 -26 34 -57z m-1722 -753 c12 -30 29 -68 38 -85 9 -16 30
-58 47 -91 33 -65 66 -96 146 -136 62 -31 168 -68 195 -68 34 0 90 -28 90 -44
0 -9 -12 -18 -27 -22 -129 -29 -324 -115 -396 -175 -47 -39 -84 -96 -106 -163
-12 -39 -21 -51 -36 -51 -15 0 -23 12 -33 48 -19 69 -75 159 -125 202 -53 46
-99 70 -211 109 -49 18 -91 37 -93 43 -2 6 11 14 29 18 46 10 195 82 237 114
85 65 129 150 152 295 6 33 15 66 21 73 18 22 46 -5 72 -67z m1775 8 c0 -13
-4 -32 -9 -43 -7 -18 -8 -18 -15 7 -8 31 -1 58 15 58 5 0 10 -10 9 -22z
m-9699 -185 c0 -20 -3 -24 -11 -16 -7 7 -9 19 -6 27 10 24 17 19 17 -11z m40
-164 c0 -11 -4 -17 -10 -14 -5 3 -10 13 -10 21 0 8 5 14 10 14 6 0 10 -9 10
-21z m13200 -639 c24 -34 20 -61 -13 -97 -27 -30 -58 -29 -92 2 -21 21 -26 31
-20 53 18 72 87 95 125 42z m-1340 -449 c0 -19 -19 -41 -35 -41 -5 0 -16 10
-24 22 -12 19 -11 24 9 40 25 20 50 10 50 -21z m823 -182 c5 -9 7 -28 3 -43
-6 -24 -11 -27 -39 -24 -27 2 -33 8 -35 31 -2 16 2 35 9 43 15 18 48 15 62 -7z
m-2086 -171 c34 -38 42 -60 31 -87 -12 -33 -25 -41 -70 -41 -28 0 -42 6 -57
26 -28 35 -26 56 5 93 31 37 63 40 91 9z m-5467 -128 c26 -14 34 -61 16 -103
-24 -59 -87 -62 -120 -7 -15 27 -16 36 -6 61 22 51 68 72 110 49z m3567 -642
c-3 -8 -6 -5 -6 6 -1 11 2 17 5 13 3 -3 4 -12 1 -19z m-2807 -373 c6 -19 34
-75 61 -125 27 -50 49 -94 49 -99 0 -10 48 -53 80 -72 14 -9 60 -28 102 -45
43 -16 78 -32 78 -35 0 -4 -12 -10 -26 -13 -54 -14 -177 -79 -216 -114 -41
-37 -68 -87 -94 -174 -17 -57 -47 -66 -65 -20 -59 149 -144 236 -259 267 -25
7 -60 21 -79 33 l-35 21 25 9 c13 5 40 12 59 16 19 4 55 17 80 29 50 25 88 80
136 195 76 188 82 194 104 127z m7045 -154 c294 -56 440 -104 655 -214 230
-118 460 -287 625 -458 171 -177 225 -256 225 -327 0 -24 6 -55 14 -70 7 -15
17 -54 21 -87 4 -33 12 -69 17 -79 6 -11 17 -72 25 -135 8 -64 18 -147 23
-186 5 -38 9 -173 9 -300 1 -204 -3 -266 -24 -367 -3 -15 -9 -77 -14 -138 -5
-61 -14 -116 -19 -123 -6 -7 -13 -46 -17 -87 -4 -41 -13 -82 -20 -90 -7 -8
-15 -38 -18 -67 -3 -29 -12 -62 -20 -75 -8 -13 -18 -39 -21 -59 -4 -21 -13
-42 -21 -49 -8 -7 -15 -24 -15 -39 0 -14 -9 -39 -20 -56 -11 -16 -20 -37 -20
-46 0 -9 -9 -26 -20 -39 -11 -13 -20 -33 -20 -45 0 -13 -7 -28 -15 -35 -8 -7
-17 -27 -21 -45 -3 -19 -12 -36 -19 -39 -7 -2 -16 -18 -20 -35 -4 -18 -13 -31
-21 -31 -20 0 -8 68 17 96 11 11 19 30 19 42 0 11 4 23 9 26 5 3 12 18 16 33
3 16 15 38 26 49 13 14 18 30 15 48 -3 17 1 30 13 38 10 7 20 30 24 51 3 20
13 44 22 53 25 25 15 49 -20 49 -17 0 -30 -5 -30 -10 -2 -36 -17 -66 -31 -61
-9 3 -19 6 -24 6 -10 0 -8 20 4 39 6 10 5 12 -2 7 -20 -12 -13 -1 15 25 14 13
23 19 19 12 -11 -19 11 -24 25 -5 7 9 9 14 5 10 -5 -5 -15 2 -21 15 -9 18 -9
25 3 39 8 10 18 15 22 13 15 -9 34 27 35 65 1 35 25 73 47 76 4 1 11 3 16 4 4
1 10 2 14 1 10 -1 20 60 16 93 -4 33 -19 36 -34 7 -6 -11 -15 -18 -20 -13 -4
4 -2 -1 6 -11 11 -15 11 -18 0 -15 -10 2 -14 -7 -15 -29 0 -39 -9 -48 -48 -48
-18 0 -32 -4 -32 -10 0 -5 -4 -16 -8 -22 -4 -7 -3 -21 3 -32 7 -15 7 -22 -2
-28 -26 -15 -34 -10 -34 22 0 19 4 31 8 29 4 -3 8 6 8 20 0 14 3 25 8 24 4 -2
8 2 10 7 2 6 12 20 23 31 11 12 19 30 17 40 -2 11 2 18 8 17 5 -1 10 8 10 21
0 16 -6 23 -23 24 -14 1 -23 -4 -23 -12 0 -18 -35 -13 -36 5 0 8 4 20 9 26 5
7 7 19 4 28 -4 8 -2 17 4 21 5 3 9 15 7 27 -2 13 2 21 10 19 6 -1 11 4 10 10
-2 7 3 12 10 10 6 -1 11 4 10 10 -2 7 2 12 9 11 12 -3 12 14 0 34 -4 6 -3 14
3 18 5 3 10 13 10 21 0 9 -5 12 -12 8 -7 -5 -8 -3 -2 7 17 27 14 42 -5 25 -10
-9 -22 -13 -26 -9 -5 5 -3 0 4 -9 11 -15 10 -17 -7 -13 -20 4 -25 -16 -7 -32
4 -4 5 -3 2 3 -3 6 0 11 8 11 13 0 13 -3 0 -17 -8 -9 -13 -19 -10 -21 2 -3 -6
-5 -19 -5 -17 0 -22 5 -22 21 1 11 5 26 10 33 5 8 3 12 -6 10 -7 -2 -12 2 -11
8 1 5 -9 10 -23 10 -14 0 -24 -6 -24 -14 0 -8 -5 -10 -12 -6 -10 6 -10 5 -1
-7 10 -13 8 -15 -12 -15 -15 0 -21 4 -16 11 5 5 9 30 10 55 3 89 8 97 59 95
33 -1 38 1 38 21 0 12 -3 21 -6 19 -4 -2 -7 2 -7 10 0 8 3 12 7 10 4 -2 7 2 7
10 0 8 -4 12 -9 9 -13 -8 -9 41 5 55 10 11 9 12 -3 6 -12 -6 -13 -5 -2 6 6 7
12 19 12 27 0 8 -5 10 -12 6 -8 -5 -7 0 2 11 8 10 10 16 3 12 -6 -4 -15 -3
-18 3 -5 8 -12 7 -23 -2 -10 -8 -13 -9 -9 -1 10 16 -9 26 -20 10 -8 -10 -10
-32 -3 -39 1 -2 3 -16 4 -31 4 -34 -7 -41 -60 -42 -40 -1 -47 6 -31 31 4 8 -3
11 -23 9 -35 -3 -36 -2 -13 16 14 12 16 12 8 0 -5 -10 -4 -12 4 -7 9 6 9 11 0
22 -6 7 -16 11 -23 7 -6 -4 -5 1 3 10 7 9 18 14 25 10 7 -4 6 -1 -1 7 -10 11
-10 17 0 29 10 12 9 13 -1 7 -7 -4 -3 9 8 29 11 20 16 34 10 30 -5 -3 -10 2
-11 12 0 16 -1 16 -8 -2 -5 -11 -7 -23 -5 -26 2 -3 -9 -5 -24 -4 -17 0 -31 9
-38 23 -10 20 -12 21 -24 7 -11 -13 -11 -16 1 -13 9 2 13 -4 11 -14 -2 -10 2
-18 8 -18 5 0 10 -7 10 -16 0 -9 5 -12 13 -8 6 4 2 -4 -10 -18 -13 -13 -23
-30 -23 -37 0 -7 -4 -10 -9 -7 -5 3 -14 -1 -21 -9 -7 -8 -16 -13 -20 -10 -5 3
-7 -3 -5 -12 2 -10 4 -18 5 -18 1 0 3 -39 4 -87 1 -55 -2 -86 -9 -85 -5 1 -9
-4 -7 -11 1 -6 -4 -11 -10 -10 -7 2 -12 -2 -11 -7 1 -6 -18 -11 -42 -11 -24 0
-43 5 -42 11 1 5 -5 8 -13 7 -8 -2 -11 0 -7 5 5 4 14 8 20 8 7 1 11 7 9 15 -2
9 1 11 10 4 7 -6 24 -10 38 -10 19 1 25 6 24 23 -1 14 3 20 10 16 6 -3 6 0 -1
7 -14 15 -43 23 -42 12 4 -29 -3 -39 -28 -37 -23 1 -27 5 -27 30 0 27 3 30 32
29 22 0 29 3 23 9 -7 7 -7 15 -1 22 7 9 2 12 -18 10 -17 -1 -31 -9 -39 -25
-13 -25 -39 -35 -50 -18 -3 6 -1 8 4 5 15 -9 36 20 29 39 -4 10 -12 13 -27 9
-16 -6 -20 -4 -13 6 6 12 5 12 -9 0 -18 -15 -23 -26 -7 -16 6 3 11 -1 11 -9 4
-53 7 -51 -49 -51 -33 1 -52 -3 -52 -11 0 -6 -7 -17 -15 -24 -8 -7 -12 -16 -9
-21 3 -5 -2 -6 -10 -3 -19 7 -45 -17 -49 -45 -4 -29 -13 -35 -49 -35 -25 -1
-33 -7 -42 -31 -13 -37 -36 -44 -36 -12 0 19 -5 24 -24 23 -14 -1 -33 -9 -44
-19 -10 -9 -24 -17 -30 -17 -7 0 -22 -11 -34 -25 -12 -14 -27 -25 -33 -25 -6
0 -26 -16 -45 -35 -19 -19 -39 -35 -45 -35 -5 0 -26 -15 -45 -33 -20 -17 -43
-36 -52 -42 -8 -5 -46 -33 -84 -62 -38 -29 -84 -63 -102 -75 -18 -13 -48 -36
-68 -53 -20 -16 -44 -34 -54 -40 -18 -10 -119 -81 -175 -122 -16 -12 -57 -38
-90 -59 -33 -20 -90 -56 -126 -80 -36 -24 -69 -44 -73 -44 -4 0 -26 -13 -49
-29 -23 -15 -69 -43 -102 -60 -33 -18 -78 -43 -100 -56 -22 -13 -53 -31 -70
-40 -16 -8 -64 -34 -105 -57 -233 -128 -689 -361 -820 -418 -41 -18 -101 -45
-134 -61 -32 -16 -122 -56 -200 -90 -77 -33 -154 -66 -171 -74 -42 -19 -512
-202 -555 -216 -19 -7 -39 -15 -45 -19 -5 -5 -26 -13 -45 -18 -19 -6 -89 -31
-155 -57 -66 -25 -165 -61 -220 -79 -100 -34 -495 -171 -590 -205 -99 -36
-444 -150 -635 -210 -107 -34 -213 -68 -235 -76 -22 -7 -80 -25 -130 -40 -49
-14 -103 -31 -120 -36 -16 -6 -84 -27 -150 -46 -66 -19 -148 -44 -182 -54
-246 -74 -328 -99 -388 -114 -27 -8 -81 -23 -120 -35 -38 -11 -101 -29 -140
-40 -38 -10 -99 -28 -135 -39 -36 -10 -105 -31 -155 -46 -49 -15 -135 -41
-190 -57 -97 -30 -147 -44 -305 -87 -41 -12 -97 -27 -125 -35 -60 -17 -519
-143 -590 -161 -240 -64 -609 -165 -765 -210 -69 -20 -154 -45 -190 -55 -36
-9 -153 -43 -260 -75 -107 -32 -224 -66 -260 -75 -58 -16 -531 -153 -620 -180
-275 -82 -453 -132 -590 -166 -30 -7 -89 -23 -130 -34 -41 -12 -115 -32 -165
-45 -115 -30 -183 -49 -270 -75 -38 -12 -92 -27 -120 -35 -27 -8 -95 -27 -150
-44 -55 -16 -145 -41 -200 -55 -55 -15 -122 -33 -150 -41 -46 -13 -77 -22
-250 -68 -118 -32 -222 -55 -345 -76 -69 -12 -174 -31 -235 -41 -133 -24 -195
-26 -195 -6 0 8 14 17 33 21 17 4 37 11 42 15 9 7 105 46 170 68 78 27 253 91
275 100 77 32 327 129 470 182 91 33 203 76 250 94 185 73 481 187 600 231 69
25 134 50 145 55 11 5 52 21 90 35 39 15 176 69 306 121 130 52 239 94 243 94
4 0 26 9 49 19 23 10 107 44 187 76 362 142 477 188 505 200 17 8 118 48 225
90 107 42 211 83 230 91 19 9 69 29 110 44 41 15 93 36 115 45 22 10 54 23 70
30 17 7 47 20 67 29 21 8 113 45 205 81 92 36 204 81 248 99 44 19 112 46 150
60 39 15 84 33 100 41 17 7 104 42 195 78 256 102 504 207 655 277 33 15 110
49 170 75 61 26 135 59 165 73 30 14 91 40 135 57 44 18 121 52 170 75 50 24
153 71 230 105 130 59 286 129 487 221 89 41 463 229 563 284 33 18 106 56
161 85 101 53 282 157 402 231 35 21 71 44 80 49 418 244 849 608 1047 885
193 267 283 426 390 691 97 237 238 500 361 674 195 274 500 555 797 735 325
197 558 278 982 344 17 2 131 3 255 1 177 -2 248 -7 335 -24z m-5237 -347 c26
-18 28 -50 5 -84 -23 -33 -33 -40 -66 -40 -59 0 -58 93 2 125 33 18 32 18 59
-1z m8729 -456 c-3 -8 -6 -5 -6 6 -1 11 2 17 5 13 3 -3 4 -12 1 -19z m-16047
-223 c0 -8 -4 -17 -10 -20 -6 -3 -9 4 -8 19 2 25 18 26 18 1z m4304 -137 c19
-47 40 -93 81 -181 39 -81 113 -133 260 -182 161 -53 180 -75 85 -94 -237 -47
-330 -105 -423 -260 -17 -30 -36 -54 -42 -54 -5 0 -27 31 -48 69 -60 110 -85
142 -126 168 -44 28 -167 72 -228 82 -72 11 -85 56 -21 69 81 17 205 113 278
215 45 62 121 186 133 214 10 25 29 8 51 -46z m3123 -17 c25 -37 23 -66 -5
-88 -22 -18 -87 -16 -106 3 -24 24 -20 71 9 100 35 35 73 29 102 -15z m933
-340 c0 -5 3 -16 6 -24 7 -19 -28 -40 -50 -31 -16 6 -22 45 -9 57 10 10 53 8
53 -2z m5077 -568 c0 -6 -3 -10 -7 -8 -4 2 -7 -2 -7 -10 0 -8 4 -12 8 -10 3 3
12 -2 19 -10 10 -12 8 -14 -8 -10 -16 3 -20 -1 -17 -15 2 -10 -4 -25 -14 -34
-19 -18 -19 -19 -22 51 -1 29 -5 41 -13 36 -7 -4 -7 -2 1 8 15 18 60 20 60 2z
m303 -7 c0 -2 -8 -10 -17 -17 -16 -13 -17 -12 -4 4 13 16 21 21 21 13z m-441
-32 c13 8 4 -21 -13 -43 -8 -11 -8 -13 1 -7 9 5 12 0 11 -17 -1 -15 -8 -24
-17 -23 -10 2 -14 16 -13 49 1 63 1 64 11 48 5 -7 14 -11 20 -7z m341 -37 c0
-8 -7 -14 -15 -14 -11 0 -12 4 -4 14 6 7 13 13 15 13 2 0 4 -6 4 -13z m-609
-101 c5 3 9 -1 9 -9 0 -20 -26 -29 -39 -13 -7 9 -7 16 2 25 8 8 13 8 15 1 2
-5 8 -8 13 -4z m305 -1 c-1 -8 -7 -20 -13 -26 -13 -13 -13 7 0 29 11 16 16 15
13 -3z m404 10 c0 -2 -6 -8 -13 -14 -10 -8 -14 -7 -14 2 0 8 6 14 14 14 7 0
13 -1 13 -2z m-260 -31 c0 -8 -5 -12 -10 -9 -6 4 -8 11 -5 16 9 14 15 11 15
-7z m297 -20 c0 -7 -5 -12 -11 -11 -6 1 -10 -3 -9 -9 1 -6 -4 -11 -12 -11 -8
0 -13 5 -12 11 1 6 -4 10 -12 8 -11 -2 -12 0 -3 10 14 17 59 18 59 2z m-14910
-322 c13 -15 47 -63 77 -107 73 -107 131 -180 299 -368 426 -481 1065 -939
1602 -1149 107 -42 415 -138 535 -167 220 -52 502 -91 661 -91 54 0 69 -3 69
-15 0 -57 -324 -99 -655 -85 -170 7 -241 15 -410 49 -132 26 -301 75 -319 92
-6 5 -18 9 -28 9 -19 0 -98 31 -203 79 -33 16 -89 41 -125 56 -60 26 -76 35
-135 73 -11 7 -33 19 -50 28 -16 8 -48 26 -70 39 -22 13 -50 29 -63 34 -31 15
-198 126 -218 145 -8 9 -19 16 -23 16 -4 0 -30 19 -58 43 -27 23 -67 56 -88
72 -21 17 -55 46 -74 66 -20 19 -43 40 -53 45 -28 16 -94 75 -213 192 -64 61
-119 112 -123 112 -4 0 -30 22 -57 50 -35 36 -52 47 -61 39 -13 -10 -26 3 -30
29 -4 22 -27 43 -41 38 -8 -3 -12 -2 -9 3 3 5 -1 14 -9 21 -14 12 -19 7 -16
-13 1 -5 -3 -6 -8 -3 -5 3 -14 0 -20 -8 -7 -8 -20 -12 -30 -9 -16 4 -19 0 -17
-25 3 -38 -11 -75 -24 -67 -5 3 -10 15 -10 26 0 11 -9 32 -21 48 -23 31 -23
88 -1 83 8 -1 11 2 8 6 -3 5 -16 7 -30 5 -20 -4 -25 0 -31 27 -4 17 -13 43
-20 57 -9 18 -11 33 -4 50 14 37 11 99 -6 113 -20 17 -20 125 1 165 11 21 15
58 15 124 0 52 2 98 5 103 10 16 58 -2 81 -30z m14964 -327 c15 10 10 -2 -8
-16 -10 -8 -14 -9 -10 -2 4 6 3 14 -3 18 -6 4 -7 12 -3 18 5 8 9 6 11 -6 2 -9
8 -15 13 -12z m-35 -64 c-3 -5 1 -14 9 -21 20 -17 8 -34 -13 -18 -10 7 -7 1 4
-12 34 -39 46 -67 29 -67 -8 0 -13 4 -12 8 1 4 -2 7 -6 8 -4 0 -15 7 -23 16
-9 8 -23 15 -32 15 -12 0 -8 8 13 30 16 17 25 30 21 30 -4 0 -4 5 -1 10 3 6 8
10 11 10 3 0 3 -4 0 -9z m-36 -175 c0 -11 -19 -15 -25 -6 -3 5 1 10 9 10 9 0
16 -2 16 -4z m-14788 -155 c3 -21 0 -28 -11 -26 -24 3 -37 31 -22 49 17 21 28
13 33 -23z m14813 -20 c-4 -14 -13 -30 -21 -34 -8 -4 -14 -14 -14 -21 0 -7 -9
-23 -20 -36 -11 -13 -20 -29 -20 -37 0 -7 -6 -13 -14 -13 -8 0 -17 -15 -20
-36 -4 -19 -14 -38 -22 -41 -7 -3 -14 -11 -14 -19 0 -7 -8 -19 -18 -26 -9 -7
-23 -25 -29 -40 -7 -16 -17 -28 -23 -28 -5 0 -10 -7 -10 -17 0 -9 -6 -23 -14
-32 -8 -9 -26 -29 -40 -44 -14 -15 -26 -31 -26 -35 -1 -12 -49 -62 -60 -62
-21 0 -9 40 25 77 19 21 35 41 35 45 0 3 20 27 45 51 25 25 45 49 45 53 0 11
82 148 93 155 5 4 10 18 10 33 1 15 9 29 19 31 9 3 19 18 23 33 7 30 55 83 68
75 5 -3 6 -17 2 -32z m-7718 -16 c-6 -15 -47 -22 -47 -7 0 8 42 30 49 25 2 -1
1 -9 -2 -18z m7333 -522 c0 -10 -18 -38 -40 -63 -22 -25 -40 -52 -40 -59 0
-12 -3 -12 -12 -3 -19 19 -18 40 3 45 10 3 22 13 25 24 6 16 53 73 61 73 2 0
3 -8 3 -17z m-120 -158 c0 -8 -7 -15 -16 -15 -14 0 -14 3 -4 15 7 8 14 15 16
15 2 0 4 -7 4 -15z m-74 -91 c-25 -26 -48 -45 -51 -42 -3 3 1 13 10 21 8 9 15
19 15 23 0 16 54 64 63 55 5 -5 -10 -28 -37 -57z m-76 -74 c0 -5 -4 -10 -10
-10 -5 0 -10 5 -10 10 0 6 5 10 10 10 6 0 10 -4 10 -10z m-30 -25 c0 -8 -4
-15 -10 -15 -5 0 -7 7 -4 15 4 8 8 15 10 15 2 0 4 -7 4 -15z m3983 -2660 c-3
-8 -9 -15 -14 -15 -10 0 -12 24 -3 33 11 11 24 -3 17 -18z m-38 -42 c-2 -10
-4 -21 -4 -25 -1 -5 -5 -8 -10 -8 -4 0 -6 11 -3 25 2 14 8 25 12 25 5 0 7 -8
5 -17z m-35 -68 c0 -15 -18 -30 -27 -22 -2 3 -2 15 2 26 7 23 25 19 25 -4z
m-40 -49 c0 -8 -8 -22 -17 -32 -10 -10 -16 -19 -14 -21 2 -2 1 -12 -2 -23 -5
-20 -37 -29 -37 -11 0 24 21 61 35 61 8 0 15 9 15 20 0 11 5 20 10 20 6 0 10
-6 10 -14z m74 -42 c8 -31 -3 -47 -23 -35 -9 6 -11 18 -7 35 8 33 22 33 30 0z
m102 -82 c-3 -18 -37 -25 -35 -7 1 6 5 9 10 8 5 -2 8 0 8 5 -3 16 1 23 10 18
5 -4 8 -14 7 -24z m574 -197 c0 -8 -4 -15 -10 -15 -5 0 -7 7 -4 15 4 8 8 15
10 15 2 0 4 -7 4 -15z m-5663 -57 c-2 -13 -4 -5 -4 17 -1 22 1 32 4 23 2 -10
2 -28 0 -40z m-5882 -57 c54 -68 54 -82 3 -130 -48 -45 -76 -51 -103 -21 -11
12 -36 31 -57 42 -61 34 -59 52 11 119 56 54 62 58 86 47 13 -6 41 -32 60 -57z
m11085 15 c0 -2 -8 -10 -17 -17 -16 -13 -17 -12 -4 4 13 16 21 21 21 13z m390
-19 c0 -8 -9 -22 -20 -32 -11 -10 -20 -26 -20 -36 0 -10 -6 -22 -14 -26 -7 -4
-18 -18 -25 -31 -7 -12 -17 -20 -22 -16 -17 10 0 57 30 85 16 14 34 35 40 47
13 24 31 29 31 9z m-18270 -1747 c0 -11 -2 -20 -4 -20 -2 0 -6 9 -9 20 -3 11
-1 20 4 20 5 0 9 -9 9 -20z m80 -60 c0 -5 -4 -10 -10 -10 -5 0 -10 5 -10 10 0
6 5 10 10 10 6 0 10 -4 10 -10z m130 -118 c3 -2 -6 -2 -20 0 -14 2 -24 8 -23
15 1 6 -5 10 -15 9 -11 -1 -18 8 -20 24 -4 24 -3 24 35 -10 21 -19 40 -37 43
-38z m44 -44 c-6 -10 -31 1 -37 16 -4 11 0 11 18 2 13 -6 21 -14 19 -18z m669
-660 c7 -7 12 -24 12 -38 0 -20 -5 -24 -21 -22 -12 1 -27 -4 -34 -13 -9 -11
-16 -12 -26 -4 -11 9 -7 18 18 50 35 44 35 44 51 27z m-266 -145 c0 -9 -4 -10
-14 -2 -7 6 -13 12 -13 14 0 1 6 2 13 2 8 0 14 -6 14 -14z m-100 -78 c-2 -27
-5 -31 -16 -22 -21 17 -39 17 -36 -2 4 -27 -6 -33 -25 -16 -14 12 -20 13 -26
4 -5 -8 -3 -10 6 -4 9 5 11 4 6 -4 -9 -15 -35 3 -32 22 5 32 18 39 38 20 15
-13 19 -14 16 -3 -2 9 3 14 12 12 8 -2 12 0 7 4 -4 4 0 16 9 26 23 25 43 7 41
-37z"/>
<path d="M8956 18038 c3 -5 10 -6 15 -3 13 9 11 12 -6 12 -8 0 -12 -4 -9 -9z"/>
<path d="M9027 17991 c-10 -4 -19 -11 -19 -16 0 -6 -4 -15 -9 -22 -7 -8 -5
-10 8 -8 10 2 20 4 23 5 3 1 7 2 10 2 3 0 7 10 8 24 1 13 1 24 -1 23 -1 0 -10
-4 -20 -8z"/>
<path d="M9161 17876 c-10 -11 -9 -14 1 -12 14 2 23 15 15 22 -2 2 -10 -2 -16
-10z"/>
<path d="M9263 17843 c0 -9 4 -10 14 -2 7 6 13 12 13 14 0 1 -6 2 -13 2 -8 0
-14 -6 -14 -14z"/>
<path d="M9306 17848 c3 -5 10 -6 15 -3 13 9 11 12 -6 12 -8 0 -12 -4 -9 -9z"/>
<path d="M9546 17768 c3 -5 10 -6 15 -3 13 9 11 12 -6 12 -8 0 -12 -4 -9 -9z"/>
<path d="M9586 17751 c3 -35 2 -35 17 -22 8 6 16 9 19 6 2 -3 5 2 5 9 0 8 -5
14 -11 13 -6 -1 -10 3 -9 9 1 6 -4 11 -11 11 -8 0 -12 -11 -10 -26z"/>
<path d="M10611 17627 c-6 -8 -8 -17 -4 -20 12 -13 22 -7 20 13 -2 24 -1 24
-16 7z"/>
<path d="M10263 17565 c0 -6 10 -11 22 -11 12 0 22 5 22 11 0 6 -10 11 -22 11
-12 0 -22 -5 -22 -11z"/>
<path d="M10547 17563 c-4 -3 -7 -13 -7 -21 0 -18 13 -7 16 13 2 17 1 18 -9 8z"/>
<path d="M21582 12982 c0 -25 3 -31 11 -23 16 16 16 58 1 58 -7 0 -12 -14 -12
-35z"/>
<path d="M19404 11525 c0 -26 3 -32 13 -23 7 6 13 16 13 23 0 7 -6 17 -13 23
-10 9 -13 3 -13 -23z"/>
<path d="M19020 11367 c0 -8 7 -14 15 -14 11 0 12 4 4 14 -6 7 -13 13 -15 13
-2 0 -4 -6 -4 -13z"/>
<path d="M19599 11333 c-1 -5 -1 -15 0 -25 1 -9 -3 -19 -9 -23 -16 -10 -12
-52 5 -52 11 0 15 13 15 54 0 29 -2 53 -5 53 -3 0 -6 -3 -6 -7z"/>
<path d="M19275 11291 c-3 -5 -2 -12 3 -15 5 -3 9 1 9 9 0 17 -3 19 -12 6z"/>
<path d="M19206 11248 c3 -5 10 -6 15 -3 13 9 11 12 -6 12 -8 0 -12 -4 -9 -9z"/>
<path d="M19266 11248 c3 -5 10 -6 15 -3 13 9 11 12 -6 12 -8 0 -12 -4 -9 -9z"/>
<path d="M19404 11213 c0 -15 3 -20 10 -13 14 14 16 37 2 37 -7 0 -12 -11 -12
-24z"/>
<path d="M19472 11188 c-19 -19 -14 -34 13 -34 27 0 33 17 12 35 -10 8 -17 7
-25 -1z"/>
<path d="M19589 11147 c-1 -4 -2 -11 -3 -17 0 -5 -5 -9 -11 -7 -5 1 -9 6 -7
10 1 5 -2 6 -7 3 -5 -3 -8 -14 -6 -24 1 -9 -2 -24 -8 -32 -6 -8 -7 -12 -3 -8
5 4 15 3 22 -3 8 -7 14 -7 19 1 3 6 10 8 15 5 9 -6 6 63 -4 72 -3 4 -7 3 -7 0z
m-9 -63 c0 -8 -5 -12 -10 -9 -6 4 -8 11 -5 16 9 14 15 11 15 -7z"/>
<path d="M19289 11129 c-7 -24 -3 -77 5 -76 6 1 10 -4 8 -12 -3 -12 0 -12 13
-1 11 9 12 16 4 26 -8 10 -6 12 10 9 20 -4 34 8 37 31 1 6 -10 10 -25 9 -14
-1 -32 2 -38 8 -7 5 -13 8 -14 6z m71 -35 c0 -8 -19 -13 -24 -6 -3 5 1 9 9 9
8 0 15 -2 15 -3z"/>
<path d="M19016 11091 c-3 -5 -19 -7 -36 -6 -17 1 -32 -1 -35 -4 -7 -13 64 -6
77 7 7 7 9 12 6 12 -4 0 -9 -4 -12 -9z"/>
<path d="M18591 11066 c-8 -9 -8 -16 -2 -20 5 -4 12 -2 16 4 4 6 12 7 18 3 7
-4 6 0 -2 10 -16 21 -16 20 -30 3z"/>
<path d="M19463 11005 c0 -6 6 -12 12 -12 6 0 12 6 12 12 0 6 -6 12 -12 12 -6
0 -12 -6 -12 -12z"/>
<path d="M19540 10888 c-7 -19 -9 -19 -9 -5 -1 10 -6 15 -12 12 -6 -4 -8 -10
-5 -13 3 -3 1 -11 -4 -17 -7 -9 -5 -17 7 -26 9 -8 14 -9 10 -2 -4 6 -3 14 3
18 5 3 10 -1 10 -10 0 -9 5 -13 10 -10 6 4 8 11 5 16 -4 5 -1 9 4 9 6 0 11 5
11 11 0 5 -5 7 -12 3 -8 -5 -9 0 -6 14 8 29 0 28 -12 0z"/>
<path d="M19540 10804 c0 -8 5 -12 10 -9 6 4 8 11 5 16 -9 14 -15 11 -15 -7z"/>
<path d="M19471 10527 c-8 -14 -11 -35 -8 -47 4 -17 3 -19 -9 -9 -7 6 -11 16
-7 22 3 6 1 7 -6 3 -8 -6 -9 -12 -2 -20 6 -7 8 -15 5 -19 -3 -3 2 -4 13 -2 10
2 21 4 25 4 12 2 18 36 10 64 l-8 29 -13 -25z"/>
<path d="M7470 24085 c-14 -8 -20 -14 -15 -14 6 0 21 6 35 14 14 8 21 14 15
14 -5 0 -21 -6 -35 -14z"/>
<path d="M22510 5806 c-6 -6 -5 -15 3 -25 10 -12 9 -13 -3 -6 -12 6 -13 5 -2
-6 21 -22 57 -18 69 8 6 13 7 21 2 17 -5 -3 -9 1 -9 8 0 16 -45 19 -60 4z"/>
<path d="M22383 5785 c0 -8 4 -12 9 -9 5 3 6 10 3 15 -9 13 -12 11 -12 -6z"/>
<path d="M22352 5728 c-17 -17 -15 -35 3 -35 9 0 15 10 15 24 0 26 -2 27 -18
11z"/>
<path d="M22463 5703 c0 -9 4 -10 14 -2 7 6 13 12 13 14 0 1 -6 2 -13 2 -8 0
-14 -6 -14 -14z"/>
<path d="M22580 5644 c0 -8 5 -12 10 -9 6 4 8 11 5 16 -9 14 -15 11 -15 -7z"/>
<path d="M22809 5585 c-5 -19 -7 -27 -8 -40 0 -8 -4 -14 -8 -12 -5 1 -9 -2
-11 -8 -1 -5 9 -10 23 -11 16 0 25 4 25 14 0 9 3 12 7 9 9 -10 33 13 33 31 0
8 -3 13 -6 9 -3 -3 -17 -2 -30 3 -13 5 -25 7 -25 5z"/>
<path d="M22884 5496 c-8 -22 3 -33 18 -18 9 9 9 15 0 24 -9 9 -13 7 -18 -6z"/>
<path d="M22987 5503 c-4 -3 -7 -11 -7 -17 0 -6 5 -5 12 2 6 6 9 14 7 17 -3 3
-9 2 -12 -2z"/>
<path d="M5922 2995 c4 -4 3 -14 -3 -22 -13 -15 -14 -14 24 -17 18 -2 25 0 18
7 -5 5 -7 17 -4 26 4 12 1 10 -11 -4 -10 -11 -15 -15 -12 -8 4 6 1 15 -6 19
-7 4 -10 4 -6 -1z"/>
<path d="M5644 2926 c1 -6 5 -16 9 -23 4 -6 3 -14 -3 -18 -6 -4 -8 -11 -4 -16
3 -6 12 -5 21 3 9 7 18 12 20 11 1 -2 5 -2 8 -2 3 1 10 2 15 3 13 1 13 6 3 31
-5 14 -18 20 -39 21 -18 0 -31 -4 -30 -10z"/>
<path d="M6016 2931 c-3 -5 1 -14 8 -20 16 -13 32 2 21 19 -8 12 -22 13 -29 1z"/>
<path d="M5726 2861 c-4 -5 -2 -12 3 -15 5 -4 12 -2 15 3 4 5 2 12 -3 15 -5 4
-12 2 -15 -3z"/>
<path d="M5563 2793 c4 -3 1 -13 -6 -22 -10 -14 -10 -14 4 -4 9 7 20 9 25 5 4
-4 2 1 -5 11 -7 9 -16 17 -19 17 -3 0 -2 -3 1 -7z"/>
</g>
</svg>
